<svg role="img" viewBox="0 0 24 24" xmlns="http://www.w3.org/2000/svg"><path fill="white" d="M11.996 0c6.626 0 11.996 5.37 11.996 11.997 0 6.626-5.37 11.996-11.996 11.996C5.37 23.993 0 18.623 0 11.997 0 5.37 5.37 0 11.996 0zm-1.895 19.34c-1.396.677-2.73 1.025-4.004 1.042-1.294.02-2.525-.304-3.693-.974.757-.17 1.487-.417 2.18-.74.654-.316 1.258-.692 1.802-1.12.56-.445 1.053-.944 1.48-1.5.422-.544.786-1.134 1.085-1.764.3-.63.535-1.29.697-1.97.166-.692.25-1.404.25-2.126 0-.712-.083-1.42-.25-2.108-.16-.677-.39-1.328-.686-1.954-.294-.616-.653-1.196-1.07-1.73-.42-.538-.9-1.026-1.442-1.458-.528-.415-1.11-.775-1.74-1.076-.66-.31-1.354-.54-2.074-.693 1.157-.65 2.376-.96 3.655-.935 1.257.025 2.57.382 3.943 1.07 1.344.68 2.617 1.637 3.82 2.87 1.173 1.204 2.21 2.624 3.104 4.25-.86-1.583-1.85-2.96-2.973-4.13-1.15-1.19-2.368-2.112-3.653-2.76z"/></svg>
