<svg role="img" viewBox="0 0 24 24" xmlns="http://www.w3.org/2000/svg"><path fill="white" d="M12.984 6.845c-.47 1.422-.734 3.031-1.71 4.316-.279.366-1.43 1.117-1.52.898-.073-.183.69-1.516.896-1.821 1.21-1.802.73-4.24-.22-6.195-.125-.255-.778-.71-1.144-.617 1.47 1.942 2.7 4.195 2.114 6.746-.226 1.01-1.254 2.585-2.062 2.673-1.536.174-1.486-1.638-.56-2.82.724-1.006 1.706-1.897 1.95-3.155.07-.376.103-.923-.27-1.077-.45-.187-.803.966-1.153 1.429-1.45 1.93-1.932 4.795-1.01 7.153.25.64 1.764 1.222 2.454.89 1.18-.566.27-2.75-.407-3.666-1.03-1.42.06-4.004.838-5.32.227-.384.857-.31 1.218-.088 1.488.94 1.91 3.555.803 5.437-.3.513-.7 1.425-1.22 1.425-1.464 0-1.677-2.65-.674-3.642.748-.738 1.967-.323 1.97 1.2.003 1.442-1.31 3.085-3.16 3.08-1.536-.005-2.2-1.05-2.222-2.18-.04-1.92 1.196-4.103 2.766-5.26 1.206-.888 1.996-1.445 2.502-3.14.07-.227.18-.544.18-.544zm-7.666 11.233c.12-.11 1.634.336 2.015.423 3.4.78 8.082.906 11.643.088.39-.09 1.006-.412 1.25-.138.167.19-.05.656-.237.915-1.12 1.545-3.682 2.37-6.25 2.508-3.085.166-7.397-.738-9.215-2.825-.32-.37-.01-1.056.246-1.127l.006.002.542.154zm2.146 3.655c2.463 1.026 6.83 1.246 9.873.5 1.1-.27 2.11-.904 2.87-1.52.274-.22 1.04-.54 1.04-.54-.863 1.34-2.85 2.65-5.3 3.076-2.522.44-5.337.332-7.514-.492-1.614-.61-3.264-1.99-3.264-1.99.35.347 1.58.673 2.295.966z"/></svg>
